<?xml version="1.0" standalone="no"?>
<!DOCTYPE svg PUBLIC "-//W3C//DTD SVG 20010904//EN"
 "http://www.w3.org/TR/2001/REC-SVG-20010904/DTD/svg10.dtd">
<svg version="1.0" xmlns="http://www.w3.org/2000/svg"
 width="406.000000pt" height="406.000000pt" viewBox="0 0 406.000000 406.000000"
 preserveAspectRatio="xMidYMid meet">
<metadata>
Created by potrace 1.14, written by Peter Selinger 2001-2017
</metadata>
<g transform="translate(0.000000,406.000000) scale(0.100000,-0.100000)"
fill="#000000" stroke="none">
<path d="M1978 3455 c-4 -4 -84 -7 -177 -7 -94 0 -173 -4 -176 -9 -4 -5 -14
-9 -25 -9 -21 0 -92 -36 -118 -61 -10 -9 -36 -23 -58 -30 -21 -8 -69 -29 -107
-46 -37 -18 -70 -33 -73 -33 -19 0 -133 -87 -217 -164 -95 -88 -163 -166 -196
-225 -54 -97 -69 -130 -76 -161 -4 -19 -13 -44 -20 -55 -18 -29 -65 -307 -65
-385 0 -46 -4 -47 -45 -20 -49 32 -154 22 -243 -24 -35 -18 -72 -97 -72 -154
0 -33 6 -45 35 -71 20 -17 44 -31 55 -31 47 0 51 -10 20 -50 -37 -47 -38 -79
-2 -113 31 -30 83 -35 157 -16 91 24 87 24 83 -2 -2 -15 -11 -25 -23 -27 -69
-10 -137 -28 -156 -42 -16 -13 -23 -31 -27 -69 -4 -44 -1 -55 18 -76 13 -14
30 -25 39 -25 23 0 81 -23 81 -32 0 -4 -30 -29 -67 -56 -79 -55 -213 -180
-213 -198 0 -43 85 -58 165 -29 62 23 65 21 59 -29 -5 -32 -2 -50 10 -67 9
-13 16 -36 16 -52 0 -35 72 -127 99 -127 25 0 33 -11 20 -27 -7 -7 -14 -64
-17 -126 -5 -111 -4 -113 23 -145 15 -17 31 -32 37 -32 5 0 23 -9 39 -21 19
-13 69 -28 142 -40 61 -11 121 -24 132 -29 11 -5 58 -16 105 -25 47 -9 95 -21
108 -26 31 -12 125 -25 336 -47 214 -21 752 -20 923 3 59 8 146 19 193 25 569
72 633 91 658 198 5 20 15 60 21 89 7 29 11 93 10 142 -2 50 1 95 7 103 19 24
64 125 64 141 0 18 15 23 25 8 11 -20 69 -41 109 -41 41 0 42 1 55 46 14 46
12 54 -22 119 -6 11 -17 34 -25 50 -9 17 -35 51 -59 77 -47 51 -50 63 -28 92
10 13 15 43 15 81 0 54 -3 64 -27 87 -16 14 -61 37 -101 49 l-74 24 6 50 c3
28 10 67 16 87 10 34 15 38 43 38 53 0 106 19 124 46 10 14 57 64 104 112 84
86 85 88 85 136 -1 39 -5 51 -21 57 -31 12 -116 10 -155 -5 -31 -10 -40 -10
-65 6 -17 10 -47 18 -67 18 -35 0 -37 2 -43 38 -4 20 -13 55 -20 77 -8 22 -16
67 -20 99 -3 33 -10 65 -15 70 -9 11 -22 46 -66 173 -14 40 -37 89 -51 110
-14 20 -29 46 -33 58 -25 65 -264 315 -341 357 -17 9 -38 23 -47 30 -35 29
-179 91 -222 95 -25 2 -54 8 -65 13 -64 27 -203 50 -340 56 -82 3 -153 3 -157
-1z"/>
</g>
</svg>
